<svg xmlns="http://www.w3.org/2000/svg" viewBox="0 0 78.74 76.42"><title>1</title><g id="Слой_2" data-name="Слой 2"><g id="Слой_1-2" data-name="Слой 1"><path d="M24.23,3.6A29.66,29.66,0,0,1,45.32.82a1.92,1.92,0,0,1,1.14.55,1.38,1.38,0,0,1-.08,1.87,1.41,1.41,0,0,1-1.4.33A27,27,0,0,0,27.27,5.14a32.09,32.09,0,0,0-3.6,2,25.87,25.87,0,0,0-3.35,2.66A27.11,27.11,0,0,0,18,12.24,24.07,24.07,0,0,0,12.78,24c-.23.9-.35,1.82-.49,2.74a97.77,97.77,0,0,0-.89,14A99.36,99.36,0,0,0,12,51.57a11.19,11.19,0,0,0,.14,1.28,8.45,8.45,0,0,1-.47,3,7.28,7.28,0,0,1-4.52,4.51,7,7,0,0,1-4.23,0A6.56,6.56,0,0,0,4.15,62.3a15.82,15.82,0,0,0,5.7,3.45A4.34,4.34,0,0,1,11.16,65,12.58,12.58,0,0,0,15,62a2.25,2.25,0,0,1,1-.86,1.38,1.38,0,0,1,1.72.82,1.36,1.36,0,0,1-.23,1.37,15.35,15.35,0,0,1-4,3.59,41.86,41.86,0,0,0,6.29,1,17.12,17.12,0,0,0,2.07-1.82,12.05,12.05,0,0,0,2.4-3.82,1.4,1.4,0,0,1,1-.91,1.37,1.37,0,0,1,1.63,1.82,14.94,14.94,0,0,1-3.11,4.92,48.67,48.67,0,0,0,8.18-.63,38.12,38.12,0,0,0,0-7.76,20.09,20.09,0,0,1-2.4-1.33A31.27,31.27,0,0,1,26.54,56a23.35,23.35,0,0,1-3.12-3.8,29.73,29.73,0,0,1-4.25-10,35.46,35.46,0,0,1-.62-12.07,1.39,1.39,0,0,1,1-1.23,6.54,6.54,0,0,1,2.12,0A17.55,17.55,0,0,0,26,28.81a16.64,16.64,0,0,0,8.38-4.17,17,17,0,0,0,4.86-7.82,2.51,2.51,0,0,1,.7-1,1.37,1.37,0,0,1,1.82,0,2.32,2.32,0,0,1,.58,1.08A17.1,17.1,0,0,0,47.44,24a16.44,16.44,0,0,0,8.88,3.73,2.92,2.92,0,0,1,1.45.38,1.37,1.37,0,0,1,.52.9,35.41,35.41,0,0,1-.64,14,27.62,27.62,0,0,1-7.34,13.21,19.89,19.89,0,0,1-4.2,3.07c0,.72-.13,1.42-.17,2.13a38.28,38.28,0,0,0-.07,5.41,55.4,55.4,0,0,0,5.74.13l1.8-.07a14.89,14.89,0,0,1-2.26-3.51A1.67,1.67,0,0,1,51,61.81a1.38,1.38,0,0,1,2-.58c.45.27.57.8.79,1.23A11.85,11.85,0,0,0,56,65.62c.3.3.63.59.94.88a44.11,44.11,0,0,0,7.53-1.65,15.62,15.62,0,0,1-4.24-3.28,1.37,1.37,0,0,1,1.63-2.16,4.37,4.37,0,0,1,.83.76,12.9,12.9,0,0,0,4,2.73,1.68,1.68,0,0,1,.89.78,24.08,24.08,0,0,0,3.79-2.08,12.09,12.09,0,0,0,3.67-3.69,7.14,7.14,0,0,0,.83-2.11A7.32,7.32,0,0,1,73,57.52a6.89,6.89,0,0,1-7.29-2.27A7.71,7.71,0,0,1,64,49.5a8.19,8.19,0,0,0,.32-2.06,104.38,104.38,0,0,0,0-18.49,6.57,6.57,0,0,1-.06-1.88,4.93,4.93,0,0,0,0-1.15A23.87,23.87,0,0,0,60.73,15a25.34,25.34,0,0,0-5-5.94,26,26,0,0,0-6.79-4.2,2.43,2.43,0,0,1-1.21-.72,1.38,1.38,0,0,1,.19-1.8,1.4,1.4,0,0,1,1.49-.24,28.69,28.69,0,0,1,8.5,5.23,28.07,28.07,0,0,1,5.5,6.74A26.63,26.63,0,0,1,67,28.4a107.13,107.13,0,0,1-.27,22.41,5.2,5.2,0,0,0,1,2.48,4.5,4.5,0,0,0,1.82,1.46,4.16,4.16,0,0,0,3.39-.12,4.64,4.64,0,0,0,2.3-2.76,1.37,1.37,0,0,1,1.15-1,2.46,2.46,0,0,1,1.38.42c.61.39.68,1.18.85,1.82a8.63,8.63,0,0,1-1.41,6.66,17.84,17.84,0,0,1-6.84,5.65,40,40,0,0,1-12,3.65,51.85,51.85,0,0,1-6.65.56c-1.82.09-3.65,0-5.47-.11a4.44,4.44,0,0,0,.12.71,13.43,13.43,0,0,0,3.32,1.36,69.73,69.73,0,0,0,13.28,2,3,3,0,0,1,1.6.32,1.37,1.37,0,0,1-1,2.47,80.73,80.73,0,0,1-13.11-1.76,25.88,25.88,0,0,1-4.51-1.47,1.59,1.59,0,0,1-.9.16,1.36,1.36,0,0,1-1.13-1.05,32.56,32.56,0,0,1-.61-4.18,41,41,0,0,1,.05-7.66,15.17,15.17,0,0,1-3.46.65,17.19,17.19,0,0,1-5.15-.39,38.43,38.43,0,0,1-1,12,1.38,1.38,0,0,1-1.45,1,1.77,1.77,0,0,1-.78-.3,25.51,25.51,0,0,1-4,1.26c-1.82.43-3.67.76-5.52,1-2.13.29-4.27.55-6.41.67a2.31,2.31,0,0,1-1.8-.24,1.38,1.38,0,0,1-.05-2.1,2.26,2.26,0,0,1,1.51-.39,74.65,74.65,0,0,0,11.91-1.7,15.42,15.42,0,0,0,4.34-1.63,49,49,0,0,1-5.79.49c-1.51.08-3,0-4.53-.05A44.55,44.55,0,0,1,14.83,70a30.54,30.54,0,0,1-9.52-3.36,13.14,13.14,0,0,1-4-3.5A6.56,6.56,0,0,1,.68,62a7.74,7.74,0,0,1-.51-1.33,6.87,6.87,0,0,1-.1-2.37,2.44,2.44,0,0,1,.56-1.44,1.38,1.38,0,0,1,1.75-.1c.21.15.33.39.53.54a4.13,4.13,0,0,0,3.21.46A4.19,4.19,0,0,0,8.64,55.9a4.87,4.87,0,0,0,.77-2.95,12.56,12.56,0,0,0-.25-1.52,6.42,6.42,0,0,1,0-1,107.43,107.43,0,0,1-.43-14.28c.1-2.87.31-5.74.67-8.59a39.8,39.8,0,0,1,.68-4.12A26.86,26.86,0,0,1,16.29,10a32.68,32.68,0,0,1,2.82-2.85,33.71,33.71,0,0,1,3.12-2.38c.67-.39,1.3-.83,2-1.18M40.89,20.26A19.75,19.75,0,0,1,28.55,31a21.11,21.11,0,0,1-5.39.79c-.67,0-1.35-.07-2-.12a31.41,31.41,0,0,0,2.76,15.9,27.09,27.09,0,0,0,2.53,4.2,25.82,25.82,0,0,0,2.14,2.39c.77.68,1.58,1.32,2.42,1.92a15.65,15.65,0,0,0,3.13,1.57,11.27,11.27,0,0,0,2.7.61,11.4,11.4,0,0,0,2.3.12,14.45,14.45,0,0,0,3.24-.55A15.8,15.8,0,0,0,48.59,54a24.82,24.82,0,0,0,6.3-11.33,32.56,32.56,0,0,0,.83-12.26A16.56,16.56,0,0,1,52,29.6a19.83,19.83,0,0,1-8.3-5.37A20.5,20.5,0,0,1,40.89,20.26Z"/></g></g></svg>