<svg xmlns="http://www.w3.org/2000/svg" viewBox="0 0 80 70"><title>1</title><g id="Слой_2" data-name="Слой 2"><g id="Layer_1" data-name="Layer 1"><path d="M74.89,5.32v-4A1.29,1.29,0,0,0,73.62,0H45.11A6.35,6.35,0,0,0,40,2.6,6.35,6.35,0,0,0,34.89,0H6.38A1.29,1.29,0,0,0,5.11,1.3v4A6.47,6.47,0,0,0,0,11.67V56.6a6.44,6.44,0,0,0,6.38,6.48H33.75a6.37,6.37,0,0,0,12.51,0h9.07a1.3,1.3,0,0,0,0-2.59H45.11a1.29,1.29,0,0,0-1.28,1.3,3.83,3.83,0,1,1-7.66,0,1.29,1.29,0,0,0-1.28-1.3H6.38A3.86,3.86,0,0,1,2.55,56.6V11.67A3.89,3.89,0,0,1,5.11,8V51.42a1.29,1.29,0,0,0,1.28,1.3H34.89a3.86,3.86,0,0,1,3.83,3.89,6.3,6.3,0,0,0-3.83-1.3H6.38a1.3,1.3,0,0,0,0,2.59H34.89a3.86,3.86,0,0,1,3.83,3.89,1.28,1.28,0,1,0,2.55,0,3.86,3.86,0,0,1,3.83-3.89H55.32a1.3,1.3,0,0,0,0-2.59H45.11a6.29,6.29,0,0,0-3.83,1.3,3.86,3.86,0,0,1,3.83-3.89h14v16a1.3,1.3,0,0,0,.57,1.08,1.26,1.26,0,0,0,1.2.11l3.54-1.52L68,69.9a1.26,1.26,0,0,0,1.2-.11,1.3,1.3,0,0,0,.57-1.08V63.09h3.83A6.44,6.44,0,0,0,80,56.61V11.67A6.47,6.47,0,0,0,74.89,5.32ZM38.72,51.42a6.29,6.29,0,0,0-3.83-1.3H7.66V2.59H34.89a3.86,3.86,0,0,1,3.83,3.89ZM67.23,66.75l-2.27-1a1.26,1.26,0,0,0-1,0l-2.27,1v-14h5.53ZM45.11,50.12a6.29,6.29,0,0,0-3.83,1.3V6.48a3.86,3.86,0,0,1,3.83-3.89H72.34V50.12H45.11ZM77.45,56.6a3.86,3.86,0,0,1-3.83,3.89H69.79V57.9h3.83a1.3,1.3,0,0,0,0-2.59H69.79V52.72h3.83a1.29,1.29,0,0,0,1.28-1.3V8a3.89,3.89,0,0,1,2.55,3.67V56.6Z"/><path d="M33.19,39.75h-20a1.3,1.3,0,0,0,0,2.59h20a1.3,1.3,0,0,0,0-2.59Z"/><path d="M33.19,32.41h-20a1.3,1.3,0,0,0,0,2.59h20a1.3,1.3,0,0,0,0-2.59Z"/><path d="M33.19,25.06h-20a1.3,1.3,0,0,0,0,2.59h20a1.3,1.3,0,0,0,0-2.59Z"/><path d="M33.19,17.72h-20a1.3,1.3,0,0,0,0,2.59h20a1.3,1.3,0,0,0,0-2.59Z"/><path d="M33.19,10.37h-20a1.3,1.3,0,0,0,0,2.59h20a1.3,1.3,0,0,0,0-2.59Z"/><path d="M66.81,39.75h-20a1.3,1.3,0,0,0,0,2.59h20a1.3,1.3,0,0,0,0-2.59Z"/><path d="M66.81,21.39a1.29,1.29,0,0,0,1.28-1.3V11.67a1.29,1.29,0,0,0-1.28-1.3h-20a1.29,1.29,0,0,0-1.28,1.3v22A1.29,1.29,0,0,0,46.81,35h20a1.29,1.29,0,0,0,1.28-1.3V25.28a1.28,1.28,0,1,0-2.55,0v7.13H48.08V13H65.53v7.13A1.29,1.29,0,0,0,66.81,21.39Z"/></g></g></svg>