<svg xmlns="http://www.w3.org/2000/svg" viewBox="0 0 72.1 96.17"><defs><style>.cls-1,.cls-2{stroke:#000;stroke-miterlimit:10;}.cls-2{fill:none;}</style></defs><title>2</title><g id="Слой_2" data-name="Слой 2"><g id="Слой_1-2" data-name="Слой 1"><path d="M31.79,18.87a30.31,30.31,0,0,1,11.78.46,1.84,1.84,0,0,1,1.25.66,1.4,1.4,0,0,1-.47,2,1.74,1.74,0,0,1-1.4,0,27.22,27.22,0,0,0-20.52,3.18A22.76,22.76,0,0,0,19.81,27a28.56,28.56,0,0,0-3.17,3,24.53,24.53,0,0,0-6.11,12.78c0,.34-.17.66-.22,1a94.79,94.79,0,0,0-1.2,15.57,98,98,0,0,0,.94,13.77,54.49,54.49,0,0,0,1.33,6.55c.19.78.55,1.52.75,2.3a20.32,20.32,0,0,0,4.64,7.86,5.82,5.82,0,0,1,.72.82c.13.26.44.34.65.52.55.47,1.1.95,1.69,1.37.1.08.24,0,.36,0,1.15-.18,2.3-.37,3.43-.62a27.19,27.19,0,0,1-8.78-12.15,1.79,1.79,0,0,1-.14-1.07,1.39,1.39,0,0,1,2.68-.11,24.48,24.48,0,0,0,8.89,11.84,2.59,2.59,0,0,1,.58.65A12.44,12.44,0,0,0,29.39,90a37.58,37.58,0,0,0,.48-10.85A22.68,22.68,0,0,1,27.65,78c-.63-.42-1.22-.89-1.81-1.35a17.19,17.19,0,0,1-1.63-1.43,23.28,23.28,0,0,1-2.86-3.52,29.21,29.21,0,0,1-4-8.73,35.63,35.63,0,0,1-1-13.59,1.61,1.61,0,0,1,.41-1,1.82,1.82,0,0,1,1.52-.45,22.78,22.78,0,0,0,3.05.2,25.38,25.38,0,0,0,2.84-.28,17,17,0,0,0,8.31-4.2,17.32,17.32,0,0,0,4.94-8,2.66,2.66,0,0,1,.76-1,1.4,1.4,0,0,1,1.85,0,2.49,2.49,0,0,1,.55,1.05,17.36,17.36,0,0,0,5.06,7.12,16.72,16.72,0,0,0,9.28,3.9,3.36,3.36,0,0,1,1.15.25,1.39,1.39,0,0,1,.71,1,36,36,0,0,1-.4,13.07,31,31,0,0,1-3.9,9.79,22,22,0,0,1-8.08,7.85,5.07,5.07,0,0,1,0,.68,38.39,38.39,0,0,0,.1,10.22c0,.11,0,.27.12.33a7.9,7.9,0,0,0,1.39.68,25.31,25.31,0,0,0,3.09-5.25,1.46,1.46,0,0,1,1-1,1.4,1.4,0,0,1,1.73,1.08,2.84,2.84,0,0,1-.45,1.63,28.57,28.57,0,0,1-2.56,4.42q1.75.44,3.54.75A21.66,21.66,0,0,0,59,83.61,8,8,0,0,0,59.56,82c.07-.38.26-.72.35-1.08a3.08,3.08,0,0,1,.34-1,2.25,2.25,0,0,0,.33-.68,49.52,49.52,0,0,0,1.71-7.71,93.73,93.73,0,0,0,.92-10.91,106.35,106.35,0,0,0-.37-12.52,7.79,7.79,0,0,1-.05-2.43,24,24,0,0,0-2.55-10.18,25.57,25.57,0,0,0-5-6.85,26.39,26.39,0,0,0-8.63-5.52,1.39,1.39,0,0,1,.06-2.58,1.5,1.5,0,0,1,1.12.06,29.24,29.24,0,0,1,7.71,4.55,27.81,27.81,0,0,1,9.4,14.92A26.47,26.47,0,0,1,65.57,47c0,.66.09,1.32.13,2a107.15,107.15,0,0,1-.51,22,56.12,56.12,0,0,1-1.73,8.47c-.3,1.09-.75,2.13-1.12,3.2A23.43,23.43,0,0,1,55.93,92.8c2.05.24,4.11.44,6.17.56a1.52,1.52,0,0,1,1,.37A1.4,1.4,0,0,1,62,96.15a85.94,85.94,0,0,1-12.6-1.62,28.22,28.22,0,0,1-5.3-1.67,1.6,1.6,0,0,1-.92.16,1.39,1.39,0,0,1-1.15-1.08,33.2,33.2,0,0,1-.62-4.23,41.68,41.68,0,0,1,.05-7.79,14.88,14.88,0,0,1-3.38.65,17.23,17.23,0,0,1-5.37-.38,39.16,39.16,0,0,1-1,12.1,1.42,1.42,0,0,1-.84,1,1.49,1.49,0,0,1-1.44-.21,25.45,25.45,0,0,1-4,1.27A76.74,76.74,0,0,1,15.21,96c-.62,0-1.24.11-1.86.14a2.52,2.52,0,0,1-1.83-.2,1.41,1.41,0,0,1-.15-2.12c.48-.5,1.23-.4,1.85-.46,1-.1,1.92-.16,2.88-.27-.14-.43-.62-.52-.89-.84A24.08,24.08,0,0,1,10.31,85,44.49,44.49,0,0,1,7.48,74.74,96.88,96.88,0,0,1,6.33,60.33a98.53,98.53,0,0,1,1.23-17c0-.34.17-.65.22-1a27.31,27.31,0,0,1,6.34-13.68A33.55,33.55,0,0,1,16.7,26a29.64,29.64,0,0,1,15.09-7.12M39.08,39.1a20.15,20.15,0,0,1-4.73,6.51,19.87,19.87,0,0,1-8.25,4.55,22.4,22.4,0,0,1-5,.68c-.69,0-1.37-.07-2.05-.12a33.48,33.48,0,0,0,.58,9.49,27.69,27.69,0,0,0,4,9.81,21,21,0,0,0,2.76,3.38c.55.53,1.16,1,1.76,1.47a15,15,0,0,0,4.65,2.46,19.86,19.86,0,0,0,2.35.43,13.42,13.42,0,0,0,4.26-.16,12.9,12.9,0,0,0,3.1-1.06,18.64,18.64,0,0,0,7-6.18,27.48,27.48,0,0,0,4-8.9,33.18,33.18,0,0,0,.73-12c-.34,0-.68-.06-1-.12A20.93,20.93,0,0,1,48.86,48a20.15,20.15,0,0,1-7.94-6.1A23.54,23.54,0,0,1,39.08,39.1Z"/><line class="cls-1" x1="37.74" x2="37.74" y2="7.17"/><line class="cls-2" x1="66.77" y1="26" x2="71.77" y2="21.67"/><line class="cls-2" x1="5.33" y1="26.22" x2="0.33" y2="21.88"/></g></g></svg>