<svg xmlns="http://www.w3.org/2000/svg" viewBox="0 0 58 70"><title>3</title><g id="Слой_2" data-name="Слой 2"><g id="Layer_1" data-name="Layer 1"><path d="M43.52,50.63A13.93,13.93,0,0,0,39.36,49l-.94-.27c-1.77-.52-2.91-1.56-3-2.77a2.64,2.64,0,0,1,1.56-2.52,3.08,3.08,0,0,1,.76-.29v2.17a1.45,1.45,0,1,0,2.9,0V43.25a8.59,8.59,0,0,1,2.35,1,1.44,1.44,0,0,0,2-.49,1.46,1.46,0,0,0-.49-2,11.57,11.57,0,0,0-3.85-1.45v-1a1.45,1.45,0,1,0-2.9,0v1a6.24,6.24,0,0,0-2.16.7,5.53,5.53,0,0,0-3,5.39c.26,2.42,2.17,4.38,5.1,5.25l.1,0v6.87a3.52,3.52,0,0,1-2.51-1.33,1.45,1.45,0,0,0-2-.62,1.46,1.46,0,0,0-.62,2c.88,1.71,2.93,2.67,5.08,2.92v1.52a1.45,1.45,0,1,0,2.9,0V61.24a7.91,7.91,0,0,0,.88-.22,6.3,6.3,0,0,0,4.31-5.07A5.35,5.35,0,0,0,43.52,50.63Zm-.6,4.9a3.37,3.37,0,0,1-2.31,2.71h0V52.41a6.06,6.06,0,0,1,1.29.63A2.49,2.49,0,0,1,42.92,55.53Z"/><path d="M39.15,32.08q-.73,0-1.45.06V6.93c0-1.52-1.06-3.67-6.11-5.26A44.22,44.22,0,0,0,18.85,0,44.22,44.22,0,0,0,6.11,1.67C1.06,3.26,0,5.4,0,6.93V51c0,1.52,1.06,3.67,6.11,5.26A44.22,44.22,0,0,0,18.85,58c.91,0,1.83,0,2.73-.07A18.87,18.87,0,1,0,39.15,32.08ZM7,4.45A41.31,41.31,0,0,1,18.85,2.92,41.31,41.31,0,0,1,30.72,4.45c3.33,1,4.08,2.17,4.08,2.48s-.75,1.43-4.08,2.48a41.31,41.31,0,0,1-11.87,1.54A41.3,41.3,0,0,1,7,9.4C3.65,8.36,2.9,7.24,2.9,6.93S3.65,5.5,7,4.45ZM2.9,10.84a16.38,16.38,0,0,0,3.21,1.35,44.22,44.22,0,0,0,12.74,1.67,44.23,44.23,0,0,0,12.74-1.67,16.38,16.38,0,0,0,3.21-1.35v3.44c0,.31-.75,1.43-4.08,2.48a41.31,41.31,0,0,1-11.87,1.54,50.93,50.93,0,0,1-6.07-.35,1.46,1.46,0,0,0-.35,2.9,53.81,53.81,0,0,0,6.41.37,44.22,44.22,0,0,0,12.74-1.67,16.39,16.39,0,0,0,3.21-1.35V29c0,.31-.75,1.43-4.08,2.48A41.31,41.31,0,0,1,18.85,33,41.3,41.3,0,0,1,7,31.46C3.65,30.41,2.9,29.29,2.9,29V25.54a16.39,16.39,0,0,0,3.21,1.35,44.22,44.22,0,0,0,12.74,1.67A51.58,51.58,0,0,0,27,27.95a1.46,1.46,0,0,0-.46-2.88,49.42,49.42,0,0,1-7.67.58A41.31,41.31,0,0,1,7,24.11c-3.33-1-4.08-2.17-4.08-2.48V10.84Zm16,44.22A41.31,41.31,0,0,1,7,53.52C3.65,52.47,2.9,51.35,2.9,51V47.6a16.39,16.39,0,0,0,3.21,1.35,44.21,44.21,0,0,0,12.74,1.67l1.46,0c0,.15,0,.3,0,.44s0,.33,0,.5,0,.1,0,.15,0,.23,0,.34,0,.12,0,.19,0,.2,0,.3l0,.21c0,.09,0,.19,0,.28l0,.22,0,.26,0,.24,0,.24,0,.26,0,.21.06.29,0,.18,0,.11C20.1,55,19.47,55.05,18.85,55.05ZM22,43.24h0l-.15.34,0,.1-.07.16a18.88,18.88,0,0,0-1.11,3.82l-1.75,0A41.3,41.3,0,0,1,7,46.16C3.65,45.12,2.9,44,2.9,43.69V32.89h0a16.39,16.39,0,0,0,3.21,1.35,44.22,44.22,0,0,0,12.74,1.67,48.38,48.38,0,0,0,10.52-1.07,19,19,0,0,0-4.56,3.9q-.57.67-1.07,1.39c-1.58.15-3.22.23-4.89.23A50.93,50.93,0,0,1,12.78,40a1.46,1.46,0,0,0-.35,2.9,53.81,53.81,0,0,0,6.41.37c1.06,0,2.12,0,3.15-.09ZM39.15,67.08A16,16,0,0,1,23.92,55.81l-.07-.24-.11-.4-.07-.27-.05-.23q-.05-.23-.1-.46l0-.19q0-.2-.07-.4l0-.13c0-.17,0-.34-.07-.52l0-.15c0-.17,0-.33,0-.5v0c0-.18,0-.36,0-.55V51.6c0-.18,0-.37,0-.56s0-.44,0-.66v-.11c0-.2,0-.4,0-.59l0-.19q0-.26.06-.52l0-.28,0-.26c0-.21.07-.41.11-.62h0A16.06,16.06,0,0,1,34.75,35.62l.07,0,.39-.11.46-.11.18,0,.6-.12a16,16,0,1,1,2.7,31.85Z"/><path d="M7.3,19.88l.69.17A1.45,1.45,0,0,0,9.73,19a1.46,1.46,0,0,0-1.07-1.76L8,17.06a1.46,1.46,0,0,0-.74,2.82Z"/><path d="M30.86,27a1.45,1.45,0,0,0,.41-.06l.85-.27A1.46,1.46,0,0,0,31.19,24l-.75.24A1.46,1.46,0,0,0,30.86,27Z"/><path d="M8.66,39.27,8,39.12a1.46,1.46,0,0,0-.74,2.82l.69.17a1.46,1.46,0,0,0,.67-2.84Z"/></g></g></svg>