<svg xmlns="http://www.w3.org/2000/svg" viewBox="0 0 78 78"><title>4</title><g id="Слой_2" data-name="Слой 2"><g id="Capa_1" data-name="Capa 1"><path d="M51.62,19.69H52a9.51,9.51,0,0,0,3.9-.84,11.53,11.53,0,0,0,1.38.08h0a22.31,22.31,0,0,0,6.3-1.1.67.67,0,0,0,.48-.62c0-.54.33-13.19-7.42-16.39A10,10,0,0,0,52.8,0a8.76,8.76,0,0,0-2.39.34c-.75-.1-3.52-.35-4.87,1.11A3.06,3.06,0,0,0,45,4.39a9.1,9.1,0,0,0,.15,12.35A9.37,9.37,0,0,0,51.62,19.69ZM52.8,1.34a8.5,8.5,0,0,1,3.3.73c6.1,2.52,6.56,12.33,6.58,14.63a20.11,20.11,0,0,1-5.42.9h0a9.77,9.77,0,0,1-4.41-1c2.09-2.52,2.49-6,1.14-10a23.88,23.88,0,0,0-2.44-5.07A7.19,7.19,0,0,1,52.8,1.34Zm-6.25,1c.75-.81,2.59-.8,3.52-.7.67,1,3.16,4.93,3.33,8.9a14.6,14.6,0,0,0-3-2.17c-1.85-1.13-3.6-2.2-4.12-4.19A1.87,1.87,0,0,1,46.55,2.36ZM44,10.18a7.78,7.78,0,0,1,1.53-4.34,11,11,0,0,0,4.19,3.68c1.55.94,3,1.84,3.52,3.22a6.84,6.84,0,0,1-2,3.57.66.66,0,0,0-.19.61.67.67,0,0,0,.4.49l.73.32c.38.17.78.35,1.21.51a8.13,8.13,0,0,1-1.7.12,8,8,0,0,1-5.56-2.52A7.75,7.75,0,0,1,44,10.18Z"/><path d="M77.92,49.64,64.38,24.79c-2-3.72-6-5.68-9.56-4.66a7.35,7.35,0,0,0-4,2.95l-8.47-.66a.65.65,0,0,0,0-.11c-.17-4.73-1.49-8.15-3.91-10.16A7.81,7.81,0,0,0,33,10.42c-.66-.24-3.05-1-4.57,0a2.82,2.82,0,0,0-1.15,2.49,8.38,8.38,0,0,0-3.24,4.6,8.21,8.21,0,0,0,.82,6.37,8.45,8.45,0,0,0,5.16,3.93,6.11,6.11,0,0,0,1.59.29l.42,0c-.08.2-.16.39-.25.58A6.24,6.24,0,0,0,30.24,28c-3.25-.87-6.88,1-8.63,4.39l-5.9,11.34L2.06,51.18a.67.67,0,0,0,0,1.17L5,54a.67.67,0,0,0-.14.25L.16,70.34a4.32,4.32,0,0,0,3.08,5.31,4.48,4.48,0,0,0,1.16.15,4.43,4.43,0,0,0,2.17-.57,4.31,4.31,0,0,0,2.06-2.62l4-14.44.28.16V65a2.15,2.15,0,0,0,2.16,2.13h8v10.2a.68.68,0,0,0,.68.67h5.12a.68.68,0,0,0,.68-.67V67.13H37.9A2.15,2.15,0,0,0,40.06,65V56a2.1,2.1,0,0,0-.5-1.36l5-23.27a.66.66,0,0,0-.14-.56l-.1-.1,5.18.41,2,26.16a.67.67,0,0,0,.29.5.69.69,0,0,0,.39.12l.19,0,.81-.23V71.7a4.8,4.8,0,0,0,9.59,0V54.88s0,0,0,0L77.51,50.6a.68.68,0,0,0,.44-.38A.66.66,0,0,0,77.92,49.64Zm-49.75,27H24.41V67.57h3.75Zm22-46.87h0L40.8,29a2.74,2.74,0,0,1-1.87-.94,2.65,2.65,0,0,1-.65-2A2.74,2.74,0,0,1,41,23.66h.22l15.7,1.23a2.74,2.74,0,0,1,1.87.94,2.65,2.65,0,0,1,.65,2,2.73,2.73,0,0,1-2.73,2.48H56.5ZM37.58,13.17C39.7,14.92,40.85,18,41,22.32A4.1,4.1,0,0,0,36.92,26a4,4,0,0,0,1,2.94,4.09,4.09,0,0,0,2.46,1.37c-.29,1.63-.61,2.92-.78,3.56-5.23.27-7-.93-8.49-2.05,5.1-4.29,3.24-16.79,2.64-20.11A6.24,6.24,0,0,1,37.58,13.17Zm-8.34-1.64c.77-.52,2.28-.19,3.08.06A53.94,53.94,0,0,1,33.16,19a20.5,20.5,0,0,0-1.61-1.59c-1.46-1.33-2.83-2.59-2.87-4.4A1.64,1.64,0,0,1,29.24,11.53Zm1.18,15a7.1,7.1,0,0,1-4.33-3.3,6.9,6.9,0,0,1-.69-5.35,7,7,0,0,1,2.16-3.42,9.85,9.85,0,0,0,3.07,4c1.26,1.15,2.44,2.23,2.54,3.57h0a22.2,22.2,0,0,1-.63,4.62A3.18,3.18,0,0,1,30.41,26.52Zm-19,31.1L7.32,72.26a3,3,0,0,1-1.42,1.8,3.05,3.05,0,0,1-2.3.29l-.35-.12,3.18-11A.67.67,0,0,0,6,62.38a.68.68,0,0,0-.84.46l-3,10.55a2.93,2.93,0,0,1-.61-2.69L6.18,54.62l5.25,2.89A.65.65,0,0,0,11.38,57.61ZM3.79,51.76,6.94,50,7,50.1l4.66,2.69a.69.69,0,0,0,.93-.24.67.67,0,0,0-.24-.92l-4-2.33,8.24-4.5a.68.68,0,0,0,.28-.28l6-11.53c1.46-2.85,4.43-4.41,7.05-3.7a4.87,4.87,0,0,1,1.25.54,5.17,5.17,0,0,1-1.54,1.45.67.67,0,0,0,0,1.12l.57.42a10.14,10.14,0,0,0,5.57,2.34L31.17,53.38a.65.65,0,0,0,.05.46H15.09A2.15,2.15,0,0,0,12.92,56v.83ZM38.7,56v2.37H14.29V56a.79.79,0,0,1,.8-.79H37.9A.79.79,0,0,1,38.7,56Zm-.8,9.82H15.09a.79.79,0,0,1-.8-.79V63.61H24.69a.67.67,0,1,0,0-1.34H14.29V59.67H38.7V65A.79.79,0,0,1,37.9,65.78Zm.42-11.91a2.21,2.21,0,0,0-.42,0H32.44a.65.65,0,0,0,.05-.14l4.58-18.43,1.05,0c.62,0,1.3,0,2-.07a.68.68,0,0,0,.61-.48c0-.06.34-1.16.69-2.87H43ZM61.4,71.7A3.41,3.41,0,0,1,58,75.08h-.2V64.79a.68.68,0,0,0-1.36,0V74.7a3.37,3.37,0,0,1-1.87-3V57.47a.66.66,0,0,0,0-.25l6.91-2Zm-8.61-15.4-.38-4.95,14-4a.67.67,0,0,0,.47-.83.68.68,0,0,0-.85-.46L52.3,50,50.84,31.18l5.54.43h.33a4.1,4.1,0,0,0,4.09-3.72,4,4,0,0,0-1-2.94A4.1,4.1,0,0,0,57,23.56l-4.59-.36a5.83,5.83,0,0,1,2.75-1.79c2.92-.84,6.27.84,8,4L76.32,49.55Z"/><path d="M1.41,44H4.14a.68.68,0,0,0,.68-.67V6.86a.68.68,0,0,0-.68-.67H1.41a.68.68,0,0,0-.68.67v36.5A.68.68,0,0,0,1.41,44Zm.68-36.5H3.46V42.69H2.09Z"/></g></g></svg>