<svg xmlns="http://www.w3.org/2000/svg" viewBox="0 0 57.04 74.5"><title>4</title><g id="Слой_2" data-name="Слой 2"><g id="Слой_1-2" data-name="Слой 1"><path d="M55.58,23.86H49.76a1.46,1.46,0,0,0-1.46,1.46v8.11a1.46,1.46,0,0,0,1.46,1.46h1.6v3.79a6.94,6.94,0,0,0-4.07-1.32H45.63V26.93s0,0,0-.09h0a23.56,23.56,0,0,1,.76-2.69l0-.1A18.19,18.19,0,0,0,43.75,7.72a19,19,0,0,0-30.56,0A18.14,18.14,0,0,0,10.64,24a16,16,0,0,1,.65,2.76h0c0,.1,0,.14,0,.15V37.36H10A6.94,6.94,0,0,0,6,38.68V34.89H7.28a1.46,1.46,0,0,0,1.46-1.46V25.32a1.46,1.46,0,0,0-1.46-1.46H1.46A1.46,1.46,0,0,0,0,25.32v8.11a1.46,1.46,0,0,0,1.46,1.46h1.6v9.46a7,7,0,0,0,7,7H27v9.31H18.3a8.92,8.92,0,0,0-8.91,8.91V73a1.46,1.46,0,0,0,1.46,1.46H46.2A1.46,1.46,0,0,0,47.65,73V69.55a8.92,8.92,0,0,0-8.91-8.91H29.92V51.33H47.29a7,7,0,0,0,7-7V34.89h1.31A1.46,1.46,0,0,0,57,33.43V25.32A1.46,1.46,0,0,0,55.58,23.86ZM15.52,9.45a16.08,16.08,0,0,1,25.89,0,15.27,15.27,0,0,1,2.25,13.71l0,.1c-.21.67-.42,1.33-.58,1.91H14c-.14-.64-.33-1.36-.55-2A15.23,15.23,0,0,1,15.52,9.45ZM33.8,31H14.21V28.08H42.73v9.28H14.21V33.94H33.8a1.46,1.46,0,1,0,0-2.91ZM5.82,32H2.91v-5.2H5.82ZM38.74,63.55A6,6,0,0,1,43.9,66.5H21.64a1.46,1.46,0,1,0,0,2.91h23.1s0,.1,0,.15v2H12.3v-2a6,6,0,0,1,6-6Zm8.55-15.13H10a4.07,4.07,0,0,1,0-8.15H47.29a4.07,4.07,0,0,1,0,8.15ZM54.13,32H51.22v-5.2h2.91Z"/></g></g></svg>