<svg xmlns="http://www.w3.org/2000/svg" viewBox="0 0 208.98 98.78"><defs><style>.cls-1{fill:#fff;}.cls-2{isolation:isolate;}</style></defs><title>logo</title><g id="Слой_2" data-name="Слой 2"><g id="Слой_1-2" data-name="Слой 1"><g id="Прямоугольник_1_копия_2" data-name="Прямоугольник 1 копия 2"><path class="cls-1" d="M95.49,3.29v92.2H3.29V3.29h92.2M98.78,0H0V98.78H98.78Z"/></g><g class="cls-2"><path class="cls-1" d="M125.8,10H120V25.64h-2.37V10h-5.71V8.09H125.8Z"/></g><g class="cls-2"><path class="cls-1" d="M143.55,25.64h-2.38V17.89h-8.52v7.75h-2.37V8.09h2.37V16h8.52V8.09h2.38Z"/></g><g class="cls-2"><path class="cls-1" d="M158.91,21.12H152.3l-1.57,4.52h-2.42l6.33-17.55h2l6.2,17.55h-2.42Zm-5.92-2h5.24l-2.56-7.54h-.07Z"/></g><g class="cls-2"><path class="cls-1" d="M178.15,10h-5.79V25.64H170V10h-5.71V8.09h13.88Z"/><path class="cls-1" d="M184.86,10.41l-1.22,4.17h-1.17V8.09h2.38Z"/><path class="cls-1" d="M200.12,21.22a2.64,2.64,0,0,0-.86-2,7.14,7.14,0,0,0-3-1.37,10,10,0,0,1-4.18-2,4.1,4.1,0,0,1-1.5-3.24,4.33,4.33,0,0,1,1.62-3.44,6.25,6.25,0,0,1,4.2-1.37,6.13,6.13,0,0,1,4.42,1.57,4.77,4.77,0,0,1,1.6,3.67l0,.07h-2.27a3.24,3.24,0,0,0-1-2.47,3.75,3.75,0,0,0-2.67-1,3.66,3.66,0,0,0-2.55.81,2.71,2.71,0,0,0-.89,2.1,2.34,2.34,0,0,0,1,1.91,8.94,8.94,0,0,0,3.15,1.34,9,9,0,0,1,4,2,4.41,4.41,0,0,1,1.39,3.3,4.1,4.1,0,0,1-1.67,3.41,6.93,6.93,0,0,1-4.36,1.29A7.41,7.41,0,0,1,192,24.47a4.34,4.34,0,0,1-1.89-3.81l0-.07h2.27a3,3,0,0,0,1.25,2.55,4.74,4.74,0,0,0,2.83.9,4.26,4.26,0,0,0,2.67-.76A2.47,2.47,0,0,0,200.12,21.22Z"/></g><g class="cls-2"><path class="cls-1" d="M117,52.47l.3,2.3h.07l.41-2.31L120.94,41h2.33l3.13,11.47.41,2.35h.07l.33-2.35L129.72,41h2.58l-4.24,17.55h-2.12l-3.51-12.18-.27-1.58h-.07l-.25,1.58-3.56,12.18h-2.12L111.92,41h2.57Z"/></g><g class="cls-2"><path class="cls-1" d="M150,58.56h-2.38V50.81h-8.52v7.75h-2.37V41h2.37v7.93h8.52V41H150Z"/></g><g class="cls-2"><path class="cls-1" d="M165.39,54h-6.61l-1.57,4.52H154.8L161.13,41h2l6.2,17.55h-2.42Zm-5.92-2h5.24l-2.56-7.54h-.07Z"/></g><g class="cls-2"><path class="cls-1" d="M184.63,42.88h-5.79V58.56h-2.38V42.88h-5.71V41h13.88Z"/><path class="cls-1" d="M191.34,43.34l-1.22,4.17H189V41h2.37Z"/><path class="cls-1" d="M206.61,54.14a2.64,2.64,0,0,0-.86-2,7.14,7.14,0,0,0-3-1.37,10,10,0,0,1-4.18-2,4.1,4.1,0,0,1-1.5-3.24,4.33,4.33,0,0,1,1.62-3.44,6.25,6.25,0,0,1,4.2-1.37,6.13,6.13,0,0,1,4.42,1.57,4.76,4.76,0,0,1,1.6,3.67l0,.07h-2.27a3.24,3.24,0,0,0-1-2.47,3.75,3.75,0,0,0-2.67-1,3.66,3.66,0,0,0-2.55.81,2.71,2.71,0,0,0-.89,2.1,2.34,2.34,0,0,0,1,1.91,8.94,8.94,0,0,0,3.15,1.34,9,9,0,0,1,4,2,4.41,4.41,0,0,1,1.39,3.3,4.1,4.1,0,0,1-1.67,3.41A6.93,6.93,0,0,1,203,58.82a7.41,7.41,0,0,1-4.49-1.42,4.33,4.33,0,0,1-1.89-3.81l0-.07h2.27a3,3,0,0,0,1.25,2.55A4.74,4.74,0,0,0,203,57a4.26,4.26,0,0,0,2.67-.76A2.47,2.47,0,0,0,206.61,54.14Z"/></g><g class="cls-2"><path class="cls-1" d="M126.48,73.94V85.6a5.66,5.66,0,0,1-1.88,4.52,7.14,7.14,0,0,1-4.85,1.63,6.74,6.74,0,0,1-4.68-1.63,5.76,5.76,0,0,1-1.82-4.51V73.94h2.37V85.6a4.23,4.23,0,0,0,1.15,3.15,4,4,0,0,0,3,1.14,4.4,4.4,0,0,0,3.14-1.14,4.12,4.12,0,0,0,1.21-3.15V73.94Z"/><path class="cls-1" d="M134.56,84.45v7h-2.38V73.94h6.72a6.19,6.19,0,0,1,4.37,1.45,5.44,5.44,0,0,1,0,7.63,6.22,6.22,0,0,1-4.37,1.43Zm0-1.86h4.34a3.19,3.19,0,0,0,3.54-3.38,3.49,3.49,0,0,0-.89-2.44,3.41,3.41,0,0,0-2.66-1h-4.34Z"/></g><g id="Прямоугольник_2" data-name="Прямоугольник 2"><polygon class="cls-1" points="63.12 29.22 32.51 29.22 32.51 31.9 63.12 31.9 63.12 29.22 63.12 29.22"/></g><g id="Прямоугольник_3" data-name="Прямоугольник 3"><polygon class="cls-1" points="19.48 28.73 16.55 30.1 39.12 78.38 42.05 77.01 19.48 28.73 19.48 28.73"/></g><g id="Прямоугольник_3_копия" data-name="Прямоугольник 3 копия"><polygon class="cls-1" points="61.38 29.22 39.15 77.01 41.89 78.73 64.28 30.58 61.38 29.22 61.38 29.22"/></g><g id="Прямоугольник_3_копия_2" data-name="Прямоугольник 3 копия 2"><polygon class="cls-1" points="34.86 29.27 31.93 30.64 54.36 78.62 57.43 77.55 34.86 29.27 34.86 29.27"/></g><g id="Прямоугольник_3_копия_3" data-name="Прямоугольник 3 копия 3"><polygon class="cls-1" points="76.68 29.1 54.28 77.25 57.18 78.62 79.58 30.47 76.68 29.1 76.68 29.1"/></g><rect class="cls-1" x="39.28" y="75.84" width="2.77" height="2.77"/><rect class="cls-1" x="54.41" y="75.84" width="2.77" height="2.77"/><rect class="cls-1" x="31.93" y="29.22" width="1.5" height="1.5"/><rect class="cls-1" x="62.98" y="29.22" width="1.3" height="1.5"/><path class="cls-1" d="M166.34,87.12h-6.75L158,91.74H155.5L162,73.8h2.08l6.34,17.95h-2.48Zm-6.05-2h5.36L163,77.38H163Z"/><path class="cls-1" d="M175.76,84.54v7.2h-2.43V73.8h6.87a6.32,6.32,0,0,1,4.47,1.48,5.56,5.56,0,0,1,0,7.8,6.36,6.36,0,0,1-4.47,1.47Zm0-1.9h4.44a3.26,3.26,0,0,0,3.62-3.45,3.56,3.56,0,0,0-.91-2.49,3.49,3.49,0,0,0-2.72-1h-4.44Z"/><path class="cls-1" d="M191.81,84.54v7.2h-2.43V73.8h6.87a6.32,6.32,0,0,1,4.47,1.48,5.56,5.56,0,0,1,0,7.8,6.36,6.36,0,0,1-4.47,1.47Zm0-1.9h4.44a3.26,3.26,0,0,0,3.62-3.45,3.56,3.56,0,0,0-.91-2.49,3.49,3.49,0,0,0-2.72-1h-4.44Z"/></g></g></svg>