<svg xmlns="http://www.w3.org/2000/svg" viewBox="0 0 380.79 180"><defs><style>.cls-1{fill:#fff;}.cls-2{isolation:isolate;}.cls-3{fill:#82b3f9;}</style></defs><title>twu blue&amp;amp;white</title><g id="Слой_2" data-name="Слой 2"><g id="Слой_1-2" data-name="Слой 1"><g id="Прямоугольник_1_копия_2" data-name="Прямоугольник 1 копия 2"><path class="cls-1" d="M174,6V174H6V6H174m6-6H0V180H180Z"/></g><g class="cls-2"><path class="cls-1" d="M229.23,18.14H218.68V46.72h-4.33V18.14H203.94V14.73h25.29Z"/></g><g class="cls-2"><path class="cls-1" d="M261.56,46.72h-4.33V32.6H241.7V46.72h-4.33v-32h4.33V29.19h15.53V14.73h4.33Z"/></g><g class="cls-2"><path class="cls-1" d="M289.55,38.48h-12l-2.86,8.24h-4.42l11.53-32h3.71l11.29,32h-4.42Zm-10.79-3.62h9.56l-4.66-13.73h-.13Z"/></g><g class="cls-2"><path class="cls-1" d="M324.61,18.14H314.06V46.72h-4.33V18.14H299.32V14.73h25.29Z"/><path class="cls-1" d="M336.84,19l-2.22,7.6h-2.13l0-7.54V14.73h4.33Z"/><path class="cls-1" d="M364.65,38.66A4.81,4.81,0,0,0,363.09,35a13,13,0,0,0-5.49-2.5A18.3,18.3,0,0,1,350,28.95,7.47,7.47,0,0,1,347.25,23a7.89,7.89,0,0,1,2.94-6.26,11.39,11.39,0,0,1,7.65-2.5,11.16,11.16,0,0,1,8.05,2.87,8.69,8.69,0,0,1,2.91,6.69l-.07.13H364.6a5.9,5.9,0,0,0-1.9-4.5,6.83,6.83,0,0,0-4.87-1.78,6.66,6.66,0,0,0-4.65,1.47A4.93,4.93,0,0,0,351.57,23a4.27,4.27,0,0,0,1.77,3.48,16.3,16.3,0,0,0,5.75,2.45,16.3,16.3,0,0,1,7.36,3.69,8,8,0,0,1,2.53,6,7.47,7.47,0,0,1-3,6.22A12.63,12.63,0,0,1,358,47.18a13.5,13.5,0,0,1-8.18-2.59,7.9,7.9,0,0,1-3.44-6.94l0-.13h4.13a5.38,5.38,0,0,0,2.29,4.65A8.64,8.64,0,0,0,358,43.8a7.77,7.77,0,0,0,4.87-1.38A4.5,4.5,0,0,0,364.65,38.66Z"/></g><g class="cls-2"><path class="cls-1" d="M213.28,95.62l.55,4.2.13,0,.75-4.22,5.67-20.89h4.24l5.71,20.89.75,4.28h.13l.59-4.28,4.57-20.89h4.7l-7.73,32h-3.87l-6.39-22.19-.48-2.88h-.13L222,84.52l-6.48,22.19h-3.87l-7.71-32h4.68Z"/></g><g class="cls-2"><path class="cls-1" d="M273.38,106.71h-4.33V92.58H253.52v14.13h-4.33v-32h4.33V89.18h15.53V74.72h4.33Z"/></g><g class="cls-2"><path class="cls-1" d="M301.37,98.47h-12l-2.86,8.24h-4.42l11.53-32h3.71l11.29,32h-4.42Zm-10.79-3.62h9.56l-4.66-13.73h-.13Z"/></g><g class="cls-2"><path class="cls-1" d="M336.43,78.13H325.88v28.58h-4.33V78.13H311.14V74.72h25.28Z"/><path class="cls-1" d="M348.66,79l-2.22,7.6h-2.13l0-7.54V74.72h4.33Z"/><path class="cls-1" d="M376.47,98.65A4.81,4.81,0,0,0,374.91,95a13,13,0,0,0-5.49-2.5,18.3,18.3,0,0,1-7.61-3.56A7.47,7.47,0,0,1,359.07,83,7.89,7.89,0,0,1,362,76.77a11.39,11.39,0,0,1,7.64-2.5,11.16,11.16,0,0,1,8.05,2.87,8.68,8.68,0,0,1,2.91,6.69l-.07.13h-4.13a5.9,5.9,0,0,0-1.9-4.5,6.83,6.83,0,0,0-4.87-1.78A6.66,6.66,0,0,0,365,79.14,4.93,4.93,0,0,0,363.4,83a4.27,4.27,0,0,0,1.77,3.48,16.3,16.3,0,0,0,5.74,2.45,16.3,16.3,0,0,1,7.36,3.69,8,8,0,0,1,2.53,6,7.47,7.47,0,0,1-3,6.22,12.62,12.62,0,0,1-7.94,2.35,13.5,13.5,0,0,1-8.18-2.59,7.9,7.9,0,0,1-3.44-6.94l0-.13h4.13a5.37,5.37,0,0,0,2.28,4.65,8.65,8.65,0,0,0,5.16,1.64,7.76,7.76,0,0,0,4.87-1.38A4.5,4.5,0,0,0,376.47,98.65Z"/></g><g class="cls-2"><path class="cls-1" d="M230.46,134.72V156a10.32,10.32,0,0,1-3.43,8.24,13,13,0,0,1-8.83,3,12.28,12.28,0,0,1-8.52-3,10.49,10.49,0,0,1-3.32-8.23V134.72h4.33V156a7.72,7.72,0,0,0,2.1,5.74,7.37,7.37,0,0,0,5.42,2.08,8,8,0,0,0,5.72-2.08,7.5,7.5,0,0,0,2.21-5.74V134.72Z"/><path class="cls-1" d="M245.19,153.88v12.83h-4.33v-32H253.1q5.12,0,8,2.64a9.92,9.92,0,0,1,0,13.91q-2.85,2.61-8,2.61Zm0-3.38h7.91a5.8,5.8,0,0,0,6.46-6.15,6.35,6.35,0,0,0-1.62-4.44,6.21,6.21,0,0,0-4.84-1.78h-7.91Z"/></g><g id="Прямоугольник_2" data-name="Прямоугольник 2"><polygon class="cls-3" points="115.02 53.24 59.23 53.24 59.23 58.12 115.02 58.12 115.02 53.24 115.02 53.24"/></g><g id="Прямоугольник_3" data-name="Прямоугольник 3"><polygon class="cls-3" points="35.49 52.36 30.16 54.85 71.29 142.82 76.62 140.33 35.49 52.36 35.49 52.36"/></g><g id="Прямоугольник_3_копия" data-name="Прямоугольник 3 копия"><polygon class="cls-3" points="111.85 53.24 71.34 140.33 76.33 143.46 117.13 55.72 111.85 53.24 111.85 53.24"/></g><g id="Прямоугольник_3_копия_2" data-name="Прямоугольник 3 копия 2"><polygon class="cls-3" points="63.52 53.34 58.19 55.84 99.06 143.25 104.65 141.31 63.52 53.34 63.52 53.34"/></g><g id="Прямоугольник_3_копия_3" data-name="Прямоугольник 3 копия 3"><polygon class="cls-3" points="139.72 53.03 98.91 140.76 104.2 143.25 145 55.52 139.72 53.03 139.72 53.03"/></g><rect class="cls-3" x="71.57" y="138.2" width="5.05" height="5.05"/><rect class="cls-3" x="99.14" y="138.2" width="5.05" height="5.05"/><rect class="cls-3" x="58.19" y="53.24" width="2.73" height="2.73"/><rect class="cls-3" x="114.76" y="53.24" width="2.37" height="2.73"/><path class="cls-1" d="M302.64,158.75H290.33l-2.92,8.42h-4.51l11.79-32.7h3.8L310,167.17h-4.51Zm-11-3.71h9.77l-4.76-14h-.13Z"/><path class="cls-1" d="M319.81,154.05v13.12h-4.42v-32.7H327.9q5.23,0,8.14,2.7a10.14,10.14,0,0,1,0,14.22q-2.91,2.67-8.14,2.67Zm0-3.46h8.09a5.93,5.93,0,0,0,6.6-6.29,6.5,6.5,0,0,0-1.65-4.54,6.35,6.35,0,0,0-5-1.82h-8.09Z"/><path class="cls-1" d="M349.05,154.05v13.12h-4.42v-32.7h12.51q5.23,0,8.14,2.7a10.14,10.14,0,0,1,0,14.22q-2.91,2.67-8.14,2.67Zm0-3.46h8.09a5.93,5.93,0,0,0,6.6-6.29,6.5,6.5,0,0,0-1.65-4.54,6.35,6.35,0,0,0-5-1.82h-8.09Z"/></g></g></svg>